<svg width="12" height="12" viewBox="0 0 12 12" fill="none" xmlns="http://www.w3.org/2000/svg">
<path d="M1.8222 1.8219H10.1793C10.3025 1.8219 10.4206 1.87082 10.5076 1.95789C10.5947 2.04496 10.6436 2.16305 10.6436 2.28618V9.71475C10.6436 9.83789 10.5947 9.95598 10.5076 10.0431C10.4206 10.1301 10.3025 10.179 10.1793 10.179H1.8222C1.69906 10.179 1.58097 10.1301 1.4939 10.0431C1.40683 9.95598 1.35791 9.83789 1.35791 9.71475V2.28618C1.35791 2.16305 1.40683 2.04496 1.4939 1.95789C1.58097 1.87082 1.69906 1.8219 1.8222 1.8219ZM6.02862 5.85329L3.05162 3.32526L2.45037 4.03283L6.03466 7.07622L9.55441 4.03051L8.94712 3.32804L6.02909 5.85329H6.02862Z" fill="#027EFF"/>
</svg>
