<svg width="45" height="18" viewBox="0 0 45 18" fill="none" xmlns="http://www.w3.org/2000/svg">
<path d="M20.9561 8.7933V14.0697H19.3198V1.03933H23.6595C24.1775 1.02826 24.6925 1.12224 25.1748 1.31586C25.6571 1.50947 26.0971 1.79888 26.4695 2.16739C26.8457 2.51352 27.1451 2.93801 27.3475 3.41234C27.55 3.88667 27.6509 4.39983 27.6434 4.91736C27.6541 5.43764 27.5548 5.95416 27.3522 6.43151C27.1496 6.90886 26.8485 7.33575 26.4695 7.68292C25.7107 8.42318 24.774 8.79296 23.6595 8.79226H20.9561V8.7933ZM20.9561 2.64356V7.19219H23.7001C24.0009 7.20131 24.3003 7.1461 24.5791 7.03009C24.8579 6.91408 25.1099 6.73983 25.3191 6.51847C25.5272 6.31151 25.6926 6.06396 25.8055 5.79047C25.9185 5.51698 25.9767 5.22309 25.9767 4.92619C25.9767 4.62929 25.9185 4.33541 25.8055 4.06192C25.6926 3.78842 25.5272 3.54088 25.3191 3.33391C25.1125 3.10789 24.8614 2.92937 24.5822 2.81017C24.3031 2.69098 24.0024 2.63383 23.7001 2.64252H20.9561V2.64356Z" fill="#5F6368"/>
<path d="M31.4134 4.86377C32.6229 4.86377 33.5775 5.19439 34.2774 5.85563C34.9773 6.51687 35.3269 7.42348 35.3262 8.57545V14.0702H33.7611V12.833H33.69C33.0124 13.8519 32.1113 14.3613 30.9866 14.3613C30.0265 14.3613 29.2233 14.0702 28.5769 13.488C28.2667 13.2207 28.0187 12.8861 27.851 12.5084C27.6833 12.1307 27.6 11.7194 27.6074 11.3046C27.6074 10.3821 27.9482 9.6484 28.6298 9.10361C29.3114 8.55881 30.2213 8.28572 31.3596 8.28434C32.3312 8.28434 33.1313 8.46628 33.7601 8.83017V8.44757C33.762 8.16479 33.7023 7.88513 33.5854 7.62888C33.4685 7.37263 33.2973 7.1462 33.0843 6.96601C32.6516 6.56665 32.0876 6.34874 31.5049 6.35572C30.5909 6.35572 29.8676 6.75011 29.3351 7.53888L27.894 6.61044C28.6867 5.44599 29.8599 4.86377 31.4134 4.86377ZM29.2965 11.341C29.2954 11.554 29.3441 11.7643 29.4385 11.9542C29.5329 12.144 29.6703 12.3081 29.8392 12.4327C30.2011 12.7239 30.6502 12.8782 31.1106 12.8694C31.8011 12.8682 32.4629 12.587 32.9511 12.0875C33.4931 11.5656 33.7642 10.9532 33.7642 10.2504C33.254 9.83451 32.5426 9.62657 31.6299 9.62657C30.9653 9.62657 30.411 9.79049 29.9672 10.1183C29.5191 10.451 29.2965 10.8555 29.2965 11.341Z" fill="#5F6368"/>
<path d="M44.3106 5.15442L38.847 17.9997H37.1579L39.1854 13.5052L35.5928 5.15442H37.3713L39.9679 11.5589H40.0035L42.529 5.15442H44.3106Z" fill="#5F6368"/>
<path d="M14.3436 7.65626C14.3442 7.14614 14.3021 6.6369 14.2176 6.13416H7.31689V9.0172H11.2693C11.1884 9.47767 11.0172 9.91661 10.7661 10.3076C10.5149 10.6985 10.1889 11.0334 9.80786 11.292V13.1635H12.1667C13.5479 11.8607 14.3436 9.93421 14.3436 7.65626Z" fill="#4285F4"/>
<path d="M7.31719 14.972C9.29188 14.972 10.9546 14.3087 12.167 13.165L9.80816 11.2936C9.15163 11.749 8.30606 12.0089 7.31719 12.0089C5.40857 12.0089 3.78858 10.6926 3.20928 8.91895H0.779297V10.8476C1.38834 12.0874 2.32223 13.1296 3.47672 13.8579C4.6312 14.5862 5.96084 14.9719 7.31719 14.972Z" fill="#34A853"/>
<path d="M3.20916 8.91875C2.90291 7.98931 2.90291 6.98281 3.20916 6.05337V4.12476H0.779173C0.266829 5.16772 0 6.3188 0 7.48606C0 8.65332 0.266829 9.8044 0.779173 10.8474L3.20916 8.91875Z" fill="#FBBC04"/>
<path d="M7.31719 2.9636C8.36072 2.94616 9.36905 3.3495 10.1242 4.08646L12.2127 1.9499C10.8884 0.677406 9.13396 -0.0212165 7.31719 0.000491134C5.96084 0.000554373 4.6312 0.386271 3.47672 1.11458C2.32223 1.84289 1.38834 2.88512 0.779297 4.12492L3.20928 6.05354C3.78858 4.27984 5.40857 2.9636 7.31719 2.9636Z" fill="#EA4335"/>
</svg>
