<svg width="93" height="92" viewBox="0 0 93 92" fill="none" xmlns="http://www.w3.org/2000/svg">
<rect x="0.946289" width="91.8351" height="92" rx="45.9176" fill="#F96264" fill-opacity="0.2"/>
<path fill-rule="evenodd" clip-rule="evenodd" d="M29.2001 40.6124C25.1061 51.4429 30.5648 63.6403 41.4822 67.6361C52.3997 71.6318 64.4718 66.164 68.4609 55.3335C72.45 44.503 66.9913 32.3055 56.1788 28.3098C53.8693 27.3635 51.3499 26.9429 48.8305 26.9429C47.8611 26.9429 46.8388 27.049 45.8387 27.2235C45.4309 27.2947 45.8387 46.0001 45.8387 46.0001L29.2001 40.6124Z" fill="white"/>
<path d="M48.8304 25.4429C51.6359 25.4429 54.3268 25.9303 56.6969 26.9025C68.2542 31.1735 74.1525 44.2134 69.8656 55.8527C65.5949 67.4477 52.6719 73.3284 40.9683 69.045C29.417 64.8173 23.5166 51.9858 27.6708 40.4309L27.7997 40.0812L30.6003 41.1436C26.7873 51.2306 31.8992 62.5318 41.9959 66.2271C52.1585 69.9466 63.36 64.8493 67.0561 54.8142C70.7735 44.7213 65.6578 33.4116 55.6118 29.6982C53.5683 28.8608 51.2613 28.4429 48.8304 28.4429C48.1317 28.4429 47.3706 28.505 46.5761 28.6235L46.0956 28.7013L45.5817 25.7458C46.7111 25.5487 47.8091 25.4429 48.8304 25.4429Z" fill="#3B3A40"/>
<path fill-rule="evenodd" clip-rule="evenodd" d="M31.0732 26.6144C35.334 23.3063 40.5491 21.5 45.8655 21.5C46.6924 21.5 47.3628 22.1716 47.3628 23V46C47.3628 46.9891 46.424 47.7074 45.4715 47.4471L23.5109 41.4471C22.717 41.2302 22.2466 40.4122 22.4577 39.6153C23.8291 34.4367 26.8889 29.8389 31.0732 26.6144ZM44.3682 44.0349V24.5549L44.0119 24.5837C40.0126 24.9456 36.147 26.4705 32.9033 28.9889C29.7263 31.4371 27.2871 34.7924 25.9107 38.5979L25.7845 38.9579L44.3682 44.0349Z" fill="#3B3A40"/>
<path d="M44.3683 24.5549V44.0349L25.7847 38.9579L25.9109 38.5979C27.2872 34.7924 29.7265 31.4371 32.9035 28.9889C36.1472 26.4705 40.0127 24.9456 44.012 24.5837L44.3683 24.5549Z" fill="#F96264"/>
</svg>
