<svg width="74" height="18" viewBox="0 0 74 18" fill="none" xmlns="http://www.w3.org/2000/svg">
<path d="M27.5629 4.02551H23.4837C23.2045 4.02551 22.9672 4.22831 22.9236 4.50387L21.2738 14.9639C21.241 15.1703 21.4009 15.3564 21.6102 15.3564H23.5576C23.8368 15.3564 24.0742 15.1536 24.1177 14.8775L24.5627 12.0562C24.6056 11.7801 24.8436 11.5773 25.1222 11.5773H26.4135C29.1005 11.5773 30.6513 10.277 31.0563 7.70028C31.2388 6.57298 31.0641 5.68724 30.5362 5.06693C29.9564 4.38577 28.9281 4.02551 27.5629 4.02551ZM28.0335 7.84582C27.8104 9.30953 26.692 9.30953 25.6107 9.30953H24.9951L25.4269 6.57596C25.4526 6.41074 25.5957 6.28907 25.7628 6.28907H26.0449C26.7815 6.28907 27.4764 6.28907 27.8354 6.70897C28.0496 6.95949 28.1152 7.33167 28.0335 7.84582Z" fill="#253B80"/>
<path d="M39.7562 7.7987H37.8028C37.6364 7.7987 37.4926 7.92038 37.467 8.08559L37.3805 8.63195L37.2439 8.43393C36.821 7.82017 35.878 7.61499 34.9368 7.61499C32.7782 7.61499 30.9346 9.24988 30.5755 11.5433C30.3888 12.6873 30.6543 13.7812 31.3032 14.544C31.8985 15.2455 32.7502 15.5377 33.7636 15.5377C35.5029 15.5377 36.4673 14.4194 36.4673 14.4194L36.3802 14.9621C36.3474 15.1697 36.5073 15.3558 36.7155 15.3558H38.475C38.7547 15.3558 38.9909 15.153 39.0351 14.8769L40.0908 8.19117C40.1242 7.98539 39.965 7.7987 39.7562 7.7987ZM37.0334 11.6005C36.8449 12.7165 35.9591 13.4656 34.8295 13.4656C34.2622 13.4656 33.8089 13.2837 33.5178 12.939C33.2292 12.5966 33.1194 12.1093 33.2113 11.5665C33.3872 10.4601 34.2879 9.68649 35.4003 9.68649C35.955 9.68649 36.4059 9.87079 36.7029 10.2185C37.0006 10.5698 37.1187 11.0601 37.0334 11.6005Z" fill="#253B80"/>
<path d="M50.1597 7.79883H48.1968C48.0095 7.79883 47.8335 7.89188 47.7274 8.04755L45.02 12.0355L43.8725 8.20323C43.8003 7.96345 43.579 7.79883 43.3285 7.79883H41.3995C41.1651 7.79883 41.0023 8.02787 41.0769 8.24856L43.239 14.5937L41.2063 17.4632C41.0464 17.6893 41.2075 18 41.4836 18H43.4442C43.6303 18 43.8045 17.9094 43.91 17.7567L50.4389 8.33266C50.5951 8.1072 50.4347 7.79883 50.1597 7.79883Z" fill="#253B80"/>
<path d="M56.6586 4.02551H52.5788C52.3003 4.02551 52.0629 4.22831 52.0193 4.50387L50.3695 14.9639C50.3367 15.1703 50.4966 15.3564 50.7047 15.3564H52.7983C52.9927 15.3564 53.1591 15.2145 53.1896 15.0212L53.6578 12.0562C53.7007 11.7801 53.9387 11.5773 54.2173 11.5773H55.508C58.1956 11.5773 59.7458 10.277 60.1514 7.70028C60.3345 6.57298 60.1586 5.68724 59.6307 5.06693C59.0515 4.38577 58.0239 4.02551 56.6586 4.02551ZM57.1292 7.84582C56.9067 9.30953 55.7883 9.30953 54.7064 9.30953H54.0914L54.5238 6.57596C54.5495 6.41074 54.6914 6.28907 54.8591 6.28907H55.1412C55.8772 6.28907 56.5727 6.28907 56.9317 6.70897C57.1459 6.95949 57.2109 7.33167 57.1292 7.84582Z" fill="#179BD7"/>
<path d="M68.8513 7.7987H66.8991C66.7315 7.7987 66.5889 7.92038 66.5639 8.08559L66.4774 8.63195L66.3402 8.43393C65.9173 7.82017 64.9749 7.61499 64.0337 7.61499C61.8751 7.61499 60.0321 9.24988 59.673 11.5433C59.4869 12.6873 59.7512 13.7812 60.4001 14.544C60.9966 15.2455 61.8471 15.5377 62.8605 15.5377C64.5998 15.5377 65.5642 14.4194 65.5642 14.4194L65.4771 14.9621C65.4443 15.1697 65.6042 15.3558 65.8135 15.3558H67.5725C67.851 15.3558 68.0884 15.153 68.132 14.8769L69.1883 8.19117C69.2205 7.98539 69.0607 7.7987 68.8513 7.7987ZM66.1285 11.6005C65.9412 12.7165 65.0543 13.4656 63.9246 13.4656C63.3585 13.4656 62.904 13.2837 62.613 12.939C62.3243 12.5966 62.2157 12.1093 62.3064 11.5665C62.4835 10.4601 63.383 9.68649 64.4954 9.68649C65.0501 9.68649 65.501 9.87079 65.798 10.2185C66.0969 10.5698 66.215 11.0601 66.1285 11.6005Z" fill="#179BD7"/>
<path d="M71.1541 4.31239L69.4799 14.9639C69.4471 15.1703 69.6069 15.3564 69.8151 15.3564H71.4983C71.778 15.3564 72.0154 15.1536 72.0584 14.8774L73.7093 4.41797C73.7422 4.21159 73.5823 4.0249 73.3741 4.0249H71.4893C71.3229 4.0255 71.1798 4.14718 71.1541 4.31239Z" fill="#179BD7"/>
<path d="M4.33383 17.3891L4.64578 15.4076L3.9509 15.3915H0.632812L2.93872 0.770568C2.94587 0.72643 2.96914 0.685275 3.00313 0.656048C3.03713 0.626822 3.08067 0.610718 3.126 0.610718H8.72077C10.5781 0.610718 11.8599 0.997222 12.5292 1.76009C12.8429 2.11796 13.0427 2.49194 13.1393 2.9035C13.2407 3.33533 13.2425 3.85127 13.1435 4.48053L13.1363 4.52646V4.92966L13.4501 5.10741C13.7143 5.24757 13.9243 5.40802 14.0853 5.59173C14.3537 5.89771 14.5273 6.2866 14.6006 6.74766C14.6764 7.22185 14.6513 7.7861 14.5273 8.4249C14.3841 9.15974 14.1527 9.79974 13.8402 10.3234C13.5527 10.806 13.1864 11.2062 12.7516 11.5163C12.3365 11.811 11.8432 12.0347 11.2855 12.1778C10.7451 12.3186 10.129 12.3896 9.45322 12.3896H9.01781C8.70646 12.3896 8.40405 12.5017 8.16666 12.7027C7.92868 12.9079 7.77121 13.1882 7.7229 13.4948L7.69009 13.6731L7.13897 17.1654L7.11392 17.2936C7.10735 17.3342 7.09602 17.3545 7.07932 17.3682C7.06441 17.3807 7.04294 17.3891 7.02206 17.3891H4.33383Z" fill="#253B80"/>
<path d="M13.747 4.573C13.7303 4.67976 13.7112 4.78892 13.6897 4.90105C12.9519 8.68915 10.4277 9.99778 7.20385 9.99778H5.5624C5.16814 9.99778 4.83592 10.2841 4.77448 10.673L3.93407 16.0029L3.69609 17.5137C3.65612 17.769 3.85296 17.9992 4.11063 17.9992H7.02193C7.36668 17.9992 7.65954 17.7487 7.71382 17.4088L7.74245 17.2608L8.2906 13.7823L8.32579 13.5914C8.37947 13.2503 8.67293 12.9997 9.01768 12.9997H9.45309C12.2737 12.9997 14.4818 11.8545 15.1272 8.54063C15.3968 7.15625 15.2572 6.00032 14.5439 5.18735C14.3279 4.9422 14.0601 4.73881 13.747 4.573Z" fill="#179BD7"/>
<path d="M12.9751 4.26532C12.8624 4.23251 12.7461 4.20269 12.6268 4.17585C12.5069 4.1496 12.384 4.12634 12.2576 4.10606C11.815 4.03449 11.3301 4.00049 10.8106 4.00049H6.42541C6.31745 4.00049 6.21486 4.02494 6.123 4.06908C5.9208 4.1663 5.7705 4.35777 5.73411 4.59217L4.80125 10.5007L4.77441 10.6731C4.83585 10.2842 5.16808 9.99786 5.56233 9.99786H7.20378C10.4276 9.99786 12.9518 8.68864 13.6897 4.90114C13.7117 4.789 13.7302 4.67985 13.7469 4.57309C13.5602 4.47408 13.358 4.38938 13.1403 4.31721C13.0866 4.29931 13.0312 4.28202 12.9751 4.26532Z" fill="#222D65"/>
<path d="M5.73433 4.59212C5.77072 4.35772 5.92102 4.16625 6.12322 4.06963C6.21567 4.02549 6.31767 4.00103 6.42563 4.00103H10.8108C11.3303 4.00103 11.8152 4.03503 12.2578 4.10661C12.3842 4.12689 12.5071 4.15015 12.627 4.17639C12.7463 4.20323 12.8626 4.23306 12.9753 4.26586C13.0314 4.28256 13.0869 4.29986 13.1411 4.31716C13.3588 4.38933 13.561 4.47462 13.7477 4.57304C13.9672 3.17315 13.7459 2.22001 12.989 1.35694C12.1546 0.406784 10.6485 0 8.72139 0H3.12662C2.73296 0 2.39715 0.286299 2.33632 0.675786L0.0059579 15.447C-0.0399693 15.7393 0.185491 16.0029 0.480141 16.0029H3.93422L4.80147 10.5006L5.73433 4.59212Z" fill="#253B80"/>
</svg>
