<svg width="92" height="92" viewBox="0 0 92 92" fill="none" xmlns="http://www.w3.org/2000/svg">
<rect width="92" height="92" rx="46" fill="#027EFF" fill-opacity="0.2"/>
<path fill-rule="evenodd" clip-rule="evenodd" d="M28.3046 40.6124C24.2032 51.4429 29.6717 63.6403 40.6088 67.6361C51.5458 71.6318 63.6397 66.164 67.6359 55.3335C71.6321 44.503 66.1636 32.3055 55.3317 28.3098C53.0181 27.3635 50.4942 26.9429 47.9702 26.9429C46.9991 26.9429 45.975 27.049 44.9731 27.2235C44.5645 27.2947 44.9731 46.0001 44.9731 46.0001L28.3046 40.6124Z" fill="white"/>
<path d="M47.9699 25.4429C50.7805 25.4429 53.4761 25.9303 55.8505 26.9025C67.4286 31.1735 73.3375 44.2134 69.0428 55.8527C64.7645 67.4477 51.8183 73.3284 40.0937 69.045C28.5217 64.8173 22.6107 51.9858 26.7723 40.4309L26.9015 40.0812L29.707 41.1436C25.8872 51.2306 31.0083 62.5318 41.1232 66.2271C51.304 69.9466 62.5256 64.8493 66.2283 54.8142C69.9524 44.7213 64.8275 33.4116 54.7635 29.6982C52.7163 28.8608 50.4052 28.4429 47.9699 28.4429C47.27 28.4429 46.5075 28.505 45.7115 28.6235L45.2302 28.7013L44.7153 25.7458C45.8468 25.5487 46.9467 25.4429 47.9699 25.4429Z" fill="#3B3A40"/>
<path fill-rule="evenodd" clip-rule="evenodd" d="M30.181 26.6144C34.4494 23.3063 39.6739 21.5 44.9999 21.5C45.8283 21.5 46.4999 22.1716 46.4999 23V46C46.4999 46.9891 45.5594 47.7074 44.6052 47.4471L22.6052 41.4471C21.8099 41.2302 21.3386 40.4122 21.55 39.6153C22.924 34.4367 25.9892 29.8389 30.181 26.6144ZM43.4999 44.035V24.555L43.143 24.5838C39.1365 24.9457 35.264 26.4705 32.0144 28.9889C28.8318 31.4371 26.3881 34.7925 25.0093 38.598L24.8829 38.958L43.4999 44.035Z" fill="#3B3A40"/>
<path d="M43.4998 24.5549V44.0349L24.8828 38.9579L25.0092 38.5979C26.3881 34.7924 28.8317 31.4371 32.0144 28.9889C35.2639 26.4705 39.1364 24.9456 43.1429 24.5837L43.4998 24.5549Z" fill="#027EFF"/>
</svg>
