<svg width="86" height="18" viewBox="0 0 86 18" fill="none" xmlns="http://www.w3.org/2000/svg">
<g clip-path="url(#clip0)">
<path fill-rule="evenodd" clip-rule="evenodd" d="M20.2855 6.80033C20.1513 7.30109 19.8911 7.66864 19.5051 7.90331C19.1185 8.13794 18.5764 8.2555 17.8772 8.2555H15.6556L16.4355 5.34538H18.657C19.3558 5.34538 19.8355 5.46272 20.0961 5.69734C20.3562 5.93224 20.4197 6.29983 20.2855 6.80033ZM22.5861 6.73762C22.8686 5.6846 22.7515 4.87612 22.235 4.31291C21.7183 3.74971 20.813 3.46826 19.5201 3.46826H14.5609L11.5762 14.6067H13.9855L15.1889 10.1168H16.769C17.1233 10.1168 17.4022 10.1743 17.6061 10.289C17.8105 10.404 17.9302 10.6074 17.9672 10.899L18.3969 14.6067H20.9785L20.5597 11.1495C20.4743 10.3777 20.1211 9.92402 19.5004 9.78851C20.2917 9.55931 20.9545 9.17821 21.4883 8.64625C22.0216 8.11455 22.3879 7.47849 22.5861 6.73762Z" fill="#072654"/>
<path fill-rule="evenodd" clip-rule="evenodd" d="M28.442 10.6172C28.2406 11.368 27.9305 11.9418 27.5117 12.338C27.0924 12.7345 26.5908 12.9325 26.0071 12.9325C25.4119 12.9325 25.0082 12.7371 24.7954 12.3458C24.5815 11.9548 24.5742 11.3893 24.773 10.6484C24.9712 9.9081 25.2876 9.32931 25.723 8.91176C26.1579 8.49503 26.6673 8.28616 27.2515 8.28616C27.8353 8.28616 28.2307 8.48726 28.4357 8.88865C28.6407 9.29003 28.6433 9.86622 28.442 10.6172ZM29.4981 6.67487L29.1963 7.80128C29.0657 7.39442 28.8134 7.07132 28.4399 6.83148C28.0658 6.59165 27.6022 6.47144 27.0497 6.47144C26.3718 6.47144 25.7199 6.64627 25.0945 6.99564C24.4692 7.34522 23.9223 7.83796 23.4546 8.47397C22.9869 9.11026 22.6441 9.83502 22.426 10.6484C22.2081 11.4622 22.1643 12.1791 22.2955 12.7995C22.4266 13.4202 22.7106 13.8973 23.1481 14.231C23.5852 14.565 24.1482 14.7315 24.8365 14.7315C25.389 14.7315 25.9155 14.6168 26.415 14.3874C26.9144 14.1582 27.3384 13.8398 27.6875 13.4332L27.3728 14.6064H29.7036L31.8289 6.67487H29.4981Z" fill="#072654"/>
<path fill-rule="evenodd" clip-rule="evenodd" d="M40.2098 6.67468H33.4358L32.9624 8.44259H36.9045L31.6924 12.9479L31.2476 14.6062H38.2405L38.7145 12.8386H34.491L39.7821 8.27036L40.2098 6.67468Z" fill="#072654"/>
<path fill-rule="evenodd" clip-rule="evenodd" d="M46.1736 10.6019C45.9639 11.3838 45.6533 11.9683 45.2423 12.3541C44.8313 12.7399 44.3339 12.9327 43.7501 12.9327C42.5296 12.9327 42.1279 12.1561 42.5441 10.6019C42.7512 9.83001 43.0634 9.24862 43.4806 8.85765C43.8984 8.46641 44.4041 8.27079 44.9988 8.27079C45.5825 8.27079 45.9764 8.46641 46.1793 8.85765C46.3822 9.24862 46.3806 9.83001 46.1736 10.6019ZM47.5372 6.97218C47.0008 6.63866 46.3156 6.47168 45.4811 6.47168C44.6361 6.47168 43.8537 6.63866 43.1331 6.97218C42.4125 7.30619 41.7991 7.78591 41.2929 8.41151C40.7861 9.03738 40.4209 9.76735 40.1972 10.6019C39.9735 11.4364 39.9475 12.1661 40.1192 12.7919C40.2903 13.4178 40.6462 13.8975 41.1883 14.2313C41.7299 14.5653 42.4229 14.7318 43.2679 14.7318C44.1023 14.7318 44.877 14.5653 45.5924 14.2313C46.3067 13.8975 46.9181 13.4178 47.4248 12.7919C47.931 12.1661 48.2963 11.4364 48.52 10.6019C48.7437 9.76735 48.7697 9.03738 48.5985 8.41151C48.4268 7.78591 48.073 7.30619 47.5372 6.97218Z" fill="#072654"/>
<path fill-rule="evenodd" clip-rule="evenodd" d="M71.9163 10.6172C71.715 11.368 71.4049 11.9418 70.9861 12.338C70.5672 12.7345 70.0647 12.9325 69.4809 12.9325C68.8868 12.9325 68.4825 12.7371 68.2697 12.3458C68.0559 11.9548 68.0486 11.3893 68.2474 10.6484C68.4456 9.9081 68.7619 9.32931 69.1974 8.91176C69.6323 8.49503 70.1417 8.28616 70.7259 8.28616C71.3097 8.28616 71.7051 8.48726 71.91 8.88865C72.1151 9.29003 72.1176 9.86622 71.9163 10.6172ZM72.9724 6.67487L72.6707 7.80128C72.5401 7.39442 72.2878 7.07132 71.9142 6.83148C71.5402 6.59165 71.0766 6.47144 70.524 6.47144C69.8461 6.47144 69.1942 6.64627 68.5689 6.99564C67.9435 7.34522 67.3967 7.83796 66.929 8.47397C66.4613 9.11026 66.1184 9.83502 65.9004 10.6484C65.6825 11.4622 65.6392 12.1791 65.7698 12.7995C65.9009 13.4202 66.1845 13.8973 66.6225 14.231C67.0596 14.565 67.6225 14.7315 68.3109 14.7315C68.8633 14.7315 69.3899 14.6168 69.8893 14.3874C70.3888 14.1582 70.8128 13.8398 71.1619 13.4332L70.8472 14.6064H73.1779L75.3033 6.67487H72.9724Z" fill="#072654"/>
<path fill-rule="evenodd" clip-rule="evenodd" d="M55.8479 8.80238L56.442 6.64351C56.2401 6.53919 55.9727 6.48694 55.6392 6.48694C55.107 6.48694 54.5945 6.61985 54.1008 6.88594C53.6768 7.11424 53.3157 7.4347 53.0108 7.83622L53.3199 6.67363L52.645 6.67475H50.9898L48.8481 14.6062H51.2112L52.322 10.4608C52.4838 9.85594 52.7741 9.38403 53.194 9.04509C53.6128 8.70614 54.1356 8.53651 54.7615 8.53651C55.1475 8.53651 55.5091 8.62521 55.8479 8.80238Z" fill="#072654"/>
<path fill-rule="evenodd" clip-rule="evenodd" d="M62.4254 10.6484C62.2266 11.3893 61.9186 11.9548 61.5014 12.3458C61.0831 12.737 60.5825 12.9324 59.9988 12.9324C59.4146 12.9324 59.0166 12.7344 58.8048 12.338C58.5925 11.9418 58.5873 11.3682 58.7886 10.6172C58.99 9.86618 59.3032 9.28996 59.7288 8.88857C60.1544 8.48719 60.6596 8.28609 61.2438 8.28609C61.8171 8.28609 62.2069 8.495 62.4134 8.912C62.6194 9.32924 62.6236 9.90829 62.4254 10.6484ZM64.0767 6.99557C63.6382 6.6462 63.0799 6.47168 62.4025 6.47168C61.8078 6.47168 61.2418 6.6072 60.7058 6.87827C60.1684 7.14984 59.733 7.5195 59.3989 7.98902L59.4065 7.937L59.8035 6.67372H59.3466V6.67484H57.4968L56.9095 8.86815C56.9027 8.89364 56.897 8.91744 56.8902 8.9432L54.4673 17.9855H56.8299L58.0499 13.4334C58.1695 13.8397 58.4182 14.1581 58.7949 14.3873C59.1716 14.6167 59.6362 14.7315 60.1892 14.7315C60.8776 14.7315 61.5321 14.565 62.1538 14.231C62.775 13.8975 63.315 13.4201 63.7729 12.7995C64.2312 12.1793 64.5694 11.4621 64.7874 10.6484C65.0054 9.83494 65.0506 9.11023 64.9242 8.47394C64.7978 7.83788 64.5148 7.3452 64.0767 6.99557Z" fill="#072654"/>
<path fill-rule="evenodd" clip-rule="evenodd" d="M85.0865 6.67725L85.0881 6.67505H83.657C83.6113 6.67505 83.5709 6.67635 83.5291 6.67725H82.7864L82.4066 7.20639C82.3762 7.24625 82.3457 7.28638 82.313 7.33292L82.2716 7.3942L79.2532 11.5979L78.6274 6.67505H76.155L77.407 14.1555L74.6421 17.9858H74.7209H76.1326H77.1053L77.7754 17.0366C77.7951 17.0083 77.8121 16.9851 77.8332 16.9552L78.6151 15.8466L78.6375 15.8149L82.1363 10.855L85.0842 6.68052L85.0881 6.67725H85.0865Z" fill="#072654"/>
<path fill-rule="evenodd" clip-rule="evenodd" d="M5.50462 4.74404L4.79736 7.34677L8.84427 4.7294L6.19773 14.604L8.88529 14.6065L12.7949 0.0214844L5.50462 4.74404Z" fill="#3395FF"/>
<path fill-rule="evenodd" clip-rule="evenodd" d="M1.14877 10.4555L0.0361328 14.6067H5.54503C5.54503 14.6067 7.79831 6.16405 7.79894 6.16162C7.79683 6.16297 1.14877 10.4555 1.14877 10.4555Z" fill="#072654"/>
</g>
<defs>
<clipPath id="clip0">
<rect width="85.1072" height="18" fill="white"/>
</clipPath>
</defs>
</svg>
